<mxfile host="app.diagrams.net" modified="2024-06-26T12:24:11.798Z" agent="Mozilla/5.0 (X11; Linux x86_64) AppleWebKit/537.36 (KHTML, like Gecko) Chrome/126.0.0.0 Safari/537.36" etag="IGhdaqOAVNcaEHVtQika" version="24.6.3" type="device">
  <diagram name="Flowchart" id="0">
    <mxGraphModel dx="1069" dy="771" grid="1" gridSize="10" guides="1" tooltips="1" connect="1" arrows="1" fold="1" page="1" pageScale="1" pageWidth="827" pageHeight="1169" math="0" shadow="0">
      <root>
        <mxCell id="0" />
        <mxCell id="1" parent="0" />
        <mxCell id="kl3Qo7PGFrbXa0GzqqIj-3" style="edgeStyle=orthogonalEdgeStyle;rounded=0;orthogonalLoop=1;jettySize=auto;html=1;" edge="1" parent="1" source="start" target="analyzeData">
          <mxGeometry relative="1" as="geometry" />
        </mxCell>
        <mxCell id="start" value="Start" style="ellipse;whiteSpace=wrap;html=1;" parent="1" vertex="1">
          <mxGeometry x="160" y="220" width="80" height="40" as="geometry" />
        </mxCell>
        <mxCell id="kl3Qo7PGFrbXa0GzqqIj-4" value="" style="edgeStyle=orthogonalEdgeStyle;rounded=0;orthogonalLoop=1;jettySize=auto;html=1;" edge="1" parent="1" source="analyzeData" target="filterContent">
          <mxGeometry relative="1" as="geometry" />
        </mxCell>
        <mxCell id="analyzeData" value="Analyze Data" style="rounded=1;whiteSpace=wrap;html=1;" parent="1" vertex="1">
          <mxGeometry x="110" y="300" width="180" height="60" as="geometry" />
        </mxCell>
        <mxCell id="filterContent" value="First Filter: Remove Waste Content" style="rounded=1;whiteSpace=wrap;html=1;" parent="1" vertex="1">
          <mxGeometry x="110" y="400" width="180" height="60" as="geometry" />
        </mxCell>
        <mxCell id="deduplicate" value="Second Filter: Deduplicate Content using MinHash" style="rounded=1;whiteSpace=wrap;html=1;" parent="1" vertex="1">
          <mxGeometry x="110" y="500" width="180" height="60" as="geometry" />
        </mxCell>
        <mxCell id="visualize" value="Analyze and Visualize Results" style="rounded=1;whiteSpace=wrap;html=1;" parent="1" vertex="1">
          <mxGeometry x="110" y="600" width="180" height="60" as="geometry" />
        </mxCell>
        <mxCell id="end" value="End" style="ellipse;whiteSpace=wrap;html=1;" parent="1" vertex="1">
          <mxGeometry x="160" y="700" width="80" height="40" as="geometry" />
        </mxCell>
        <mxCell id="flow5" style="edgeStyle=orthogonalEdgeStyle;rounded=0;orthogonalLoop=1;jettySize=auto;html=1;exitX=0.5;exitY=1;exitDx=0;exitDy=0;entryX=0.5;entryY=0;entryDx=0;entryDy=0;" parent="1" source="filterContent" target="deduplicate" edge="1">
          <mxGeometry relative="1" as="geometry" />
        </mxCell>
        <mxCell id="flow6" style="edgeStyle=orthogonalEdgeStyle;rounded=0;orthogonalLoop=1;jettySize=auto;html=1;exitX=0.5;exitY=1;exitDx=0;exitDy=0;entryX=0.5;entryY=0;entryDx=0;entryDy=0;" parent="1" source="deduplicate" target="visualize" edge="1">
          <mxGeometry relative="1" as="geometry" />
        </mxCell>
        <mxCell id="flow7" style="edgeStyle=orthogonalEdgeStyle;rounded=0;orthogonalLoop=1;jettySize=auto;html=1;exitX=0.5;exitY=1;exitDx=0;exitDy=0;entryX=0.5;entryY=0;entryDx=0;entryDy=0;" parent="1" source="visualize" target="end" edge="1">
          <mxGeometry relative="1" as="geometry" />
        </mxCell>
        <mxCell id="comment2" value="Analyze data: Number of URLs, sources, text length" style="note;whiteSpace=wrap;html=1;" parent="1" vertex="1">
          <mxGeometry x="314" y="300" width="200" height="60" as="geometry" />
        </mxCell>
        <mxCell id="comment4" value="Filter out irrelevant or duplicate content" style="note;whiteSpace=wrap;html=1;" parent="1" vertex="1">
          <mxGeometry x="314" y="400" width="200" height="60" as="geometry" />
        </mxCell>
        <mxCell id="comment5" value="Deduplicate content using MinHash algorithm" style="note;whiteSpace=wrap;html=1;" parent="1" vertex="1">
          <mxGeometry x="314" y="500" width="200" height="60" as="geometry" />
        </mxCell>
        <mxCell id="comment6" value="Get graphs on token distribution and source diversity" style="note;whiteSpace=wrap;html=1;" parent="1" vertex="1">
          <mxGeometry x="314" y="600" width="200" height="60" as="geometry" />
        </mxCell>
        <mxCell id="flow9" style="edgeStyle=orthogonalEdgeStyle;rounded=0;orthogonalLoop=1;jettySize=auto;html=1;dashed=1;" parent="1" source="analyzeData" target="comment2" edge="1">
          <mxGeometry relative="1" as="geometry" />
        </mxCell>
        <mxCell id="flow11" style="edgeStyle=orthogonalEdgeStyle;rounded=0;orthogonalLoop=1;jettySize=auto;html=1;dashed=1;" parent="1" source="filterContent" target="comment4" edge="1">
          <mxGeometry relative="1" as="geometry" />
        </mxCell>
        <mxCell id="flow12" style="edgeStyle=orthogonalEdgeStyle;rounded=0;orthogonalLoop=1;jettySize=auto;html=1;dashed=1;" parent="1" source="deduplicate" target="comment5" edge="1">
          <mxGeometry relative="1" as="geometry" />
        </mxCell>
        <mxCell id="flow13" style="edgeStyle=orthogonalEdgeStyle;rounded=0;orthogonalLoop=1;jettySize=auto;html=1;dashed=1;" parent="1" source="visualize" target="comment6" edge="1">
          <mxGeometry relative="1" as="geometry" />
        </mxCell>
      </root>
    </mxGraphModel>
  </diagram>
</mxfile>
